<svg id="Layer_1" data-name="Layer 1" xmlns="http://www.w3.org/2000/svg" viewBox="0 0 1345.18 267.92"><defs><style>.cls-1,.cls-2,.cls-3{fill:#f3f0ea;}.cls-2{font-size:41.68px;font-family:TwCenMT-Regular, Tw Cen MT;}.cls-3{font-size:231.44px;font-family:BritannicBold, Britannic Bold;}</style></defs><title>haven_logo</title><polyline class="cls-1" points="433.63 285.3 433.63 285.3 433.63 285.3"/><path class="cls-1" d="M201.57,261.61s3.78,5.68-2.21,12-68.71,35-71.23,58.94C128.13,332.53,127.5,291.24,201.57,261.61Z" transform="translate(-14.82 -243.42)"/><path class="cls-1" d="M201.15,277.55s.32,18.91-3.78,20.49-67.44,45.38-65.24,58.62C132.13,356.66,109.76,325.66,201.15,277.55Z" transform="translate(-14.82 -243.42)"/><path class="cls-1" d="M186.68,328.56s10.63-19.81,8.49-22.25c-1.81-2.06-63.66,34.32-58.21,66.07C136.93,366.64,181.71,327.89,186.68,328.56Z" transform="translate(-14.82 -243.42)"/><path class="cls-1" d="M186.65,333.56s-4.23,14.32-7.16,16.4-41.87,26.55-23.09,44.1C156.4,394.06,118.63,373.78,186.65,333.56Z" transform="translate(-14.82 -243.42)"/><path class="cls-1" d="M160.07,395.19c4.5,3.11,26.77,25.74,28.37,27.28,27.06,25.95,40.58,38.92,53.78,47,59.84,36.62,132.67,22.85,147,20.13h0c3.94-.5,85.74-16.65,128-15.58a443.47,443.47,0,0,1,137.85,25.74s-77.75-36.2-164-37.51c-17.56-.27-34.34,1.33-67.91,4.52-68.24,6.5-76.9,10.33-106.4,7.25-23.2-2.43-52.75-5.52-80.91-24.55-2-1.37-14.15-10.64-38.39-29.19C171.51,400.45,156,392.37,160.07,395.19Z" transform="translate(-14.82 -243.42)"/><path class="cls-1" d="M148.14,428.31c-.39.68,5.75,3.53,12.24,10.09a62,62,0,0,1,11,15.33,63,63,0,0,1,5.34,14.89,26.59,26.59,0,0,0,1.35-14.41c-1.21-6.09-4.88-10.08-7.65-13.09a43.56,43.56,0,0,0-14-9.85C153.17,429.65,148.47,427.71,148.14,428.31Z" transform="translate(-14.82 -243.42)"/><path class="cls-1" d="M146.82,450.48" transform="translate(-14.82 -243.42)"/><path class="cls-1" d="M151.77,394.3c-33.33-18.67-27.21-68.63-25.84-69.65,3-34.67,71.69-66.49,71.69-66.49-32.78,8.51-54.52,19.35-75.16,39.22s-17.65,63.51-17.65,63.51c-2.84-5.36-18.25-13.73-28-13.73s-18.78,10-23.19,17.53S45.87,372.24,32,380.43s-17.18,13.25-17.18,13.25c37.82-19.22,38.71-20.5,50.91-12.6,11.19,7.25,18.59,16.07,27.57,32.77,6.72,12.51,19.36,14.93,26.44,15.31,1.72.09,8.33-1.44,10-1.94C174.46,413.58,192.33,469,192.33,469S195.27,418.67,151.77,394.3ZM77.64,362.17a2.64,2.64,0,1,1,0-3.74A2.63,2.63,0,0,1,77.64,362.17Z" transform="translate(-14.82 -243.42)"/><rect class="cls-1" x="51.35" y="112.16" width="16.83" height="9.84"/><text class="cls-2" transform="translate(654.04 256.34)">FOR INJURED AND ORPHANED WILDLIFE</text><text class="cls-3" transform="translate(217.81 192.91)">THE HAVEN</text></svg>